<?xml version="1.0" standalone="no"?>
<!DOCTYPE svg PUBLIC "-//W3C//DTD SVG 1.1//EN" "http://www.w3.org/Graphics/SVG/1.1/DTD/svg11.dtd">
<svg width="2082.000000" height="1479.000000" version="1.1" xmlns="http://www.w3.org/2000/svg" xmlns:xlink="http://www.w3.org/1999/xlink">
	<text style="shape-rendering:crispEdges" x="812.795000" y="963.420000" fill="rgb(0,0,255)" dominant-baseline="central" font-size="12" font-family="Arial" text-anchor="middle">mulCooTowSys</text>
	<rect style="shape-rendering:crispEdges" fill="rgb(95,95,95)" stroke="rgb(95,95,95)" stroke-opacity="1" x="799.790000" y="813.480000" width="21.420000" height="21.420000"/>
	<rect style="shape-rendering:crispEdges" fill="rgb(95,95,95)" stroke="rgb(95,95,95)" stroke-opacity="1" x="802.850000" y="807.360000" width="15.300000" height="6.120000"/>
	<ellipse style="shape-rendering:crispEdges" fill="rgb(255,255,255)" stroke="rgb(255,255,255)" stroke-opacity="1" cx="805.910000" cy="811.185000" rx="3.060000" ry="0.765000"/>
	<ellipse style="shape-rendering:crispEdges" fill="rgb(255,255,255)" stroke="rgb(255,255,255)" stroke-opacity="1" cx="815.090000" cy="811.185000" rx="3.060000" ry="0.765000"/>
	<polyline style="shape-rendering:crispEdges" fill="none" stroke="rgb(255,0,0)" stroke-opacity="1" points="804.380000,819.600000 802.850000,824.190000"/>
	<polyline style="shape-rendering:crispEdges" fill="none" stroke="rgb(255,0,0)" stroke-opacity="1" points="804.380000,819.600000 805.910000,824.190000"/>
	<polyline style="shape-rendering:crispEdges" fill="none" stroke="rgb(255,0,0)" stroke-opacity="1" points="810.500000,819.600000 808.970000,824.190000"/>
	<polyline style="shape-rendering:crispEdges" fill="none" stroke="rgb(255,0,0)" stroke-opacity="1" points="810.500000,819.600000 812.030000,824.190000"/>
	<polyline style="shape-rendering:crispEdges" fill="none" stroke="rgb(255,0,0)" stroke-opacity="1" points="816.620000,819.600000 815.090000,824.190000"/>
	<polyline style="shape-rendering:crispEdges" fill="none" stroke="rgb(255,0,0)" stroke-opacity="1" points="816.620000,819.600000 818.150000,824.190000"/>
	<rect style="shape-rendering:crispEdges" fill="rgb(95,95,95)" stroke="rgb(95,95,95)" stroke-opacity="1" x="799.790000" y="859.380000" width="21.420000" height="21.420000"/>
	<rect style="shape-rendering:crispEdges" fill="rgb(95,95,95)" stroke="rgb(95,95,95)" stroke-opacity="1" x="802.850000" y="853.260000" width="15.300000" height="6.120000"/>
	<ellipse style="shape-rendering:crispEdges" fill="rgb(255,255,255)" stroke="rgb(255,255,255)" stroke-opacity="1" cx="805.910000" cy="857.085000" rx="3.060000" ry="0.765000"/>
	<ellipse style="shape-rendering:crispEdges" fill="rgb(255,255,255)" stroke="rgb(255,255,255)" stroke-opacity="1" cx="815.090000" cy="857.085000" rx="3.060000" ry="0.765000"/>
	<polyline style="shape-rendering:crispEdges" fill="none" stroke="rgb(255,0,0)" stroke-opacity="1" points="804.380000,865.500000 802.850000,870.090000"/>
	<polyline style="shape-rendering:crispEdges" fill="none" stroke="rgb(255,0,0)" stroke-opacity="1" points="804.380000,865.500000 805.910000,870.090000"/>
	<polyline style="shape-rendering:crispEdges" fill="none" stroke="rgb(255,0,0)" stroke-opacity="1" points="810.500000,865.500000 808.970000,870.090000"/>
	<polyline style="shape-rendering:crispEdges" fill="none" stroke="rgb(255,0,0)" stroke-opacity="1" points="810.500000,865.500000 812.030000,870.090000"/>
	<polyline style="shape-rendering:crispEdges" fill="none" stroke="rgb(255,0,0)" stroke-opacity="1" points="816.620000,865.500000 815.090000,870.090000"/>
	<polyline style="shape-rendering:crispEdges" fill="none" stroke="rgb(255,0,0)" stroke-opacity="1" points="816.620000,865.500000 818.150000,870.090000"/>
	<rect style="shape-rendering:crispEdges" fill="rgb(95,95,95)" stroke="rgb(95,95,95)" stroke-opacity="1" x="799.790000" y="905.280000" width="21.420000" height="21.420000"/>
	<rect style="shape-rendering:crispEdges" fill="rgb(95,95,95)" stroke="rgb(95,95,95)" stroke-opacity="1" x="802.850000" y="899.160000" width="15.300000" height="6.120000"/>
	<ellipse style="shape-rendering:crispEdges" fill="rgb(255,255,255)" stroke="rgb(255,255,255)" stroke-opacity="1" cx="805.910000" cy="902.985000" rx="3.060000" ry="0.765000"/>
	<ellipse style="shape-rendering:crispEdges" fill="rgb(255,255,255)" stroke="rgb(255,255,255)" stroke-opacity="1" cx="815.090000" cy="902.985000" rx="3.060000" ry="0.765000"/>
	<polyline style="shape-rendering:crispEdges" fill="none" stroke="rgb(255,0,0)" stroke-opacity="1" points="804.380000,911.400000 802.850000,915.990000"/>
	<polyline style="shape-rendering:crispEdges" fill="none" stroke="rgb(255,0,0)" stroke-opacity="1" points="804.380000,911.400000 805.910000,915.990000"/>
	<polyline style="shape-rendering:crispEdges" fill="none" stroke="rgb(255,0,0)" stroke-opacity="1" points="810.500000,911.400000 808.970000,915.990000"/>
	<polyline style="shape-rendering:crispEdges" fill="none" stroke="rgb(255,0,0)" stroke-opacity="1" points="810.500000,911.400000 812.030000,915.990000"/>
	<polyline style="shape-rendering:crispEdges" fill="none" stroke="rgb(255,0,0)" stroke-opacity="1" points="816.620000,911.400000 815.090000,915.990000"/>
	<polyline style="shape-rendering:crispEdges" fill="none" stroke="rgb(255,0,0)" stroke-opacity="1" points="816.620000,911.400000 818.150000,915.990000"/>
	<polyline style="shape-rendering:crispEdges" fill="none" stroke="rgb(255,0,0)" stroke-opacity="1" points="734.000000,865.500000 779.900000,865.500000 779.900000,819.600000 816.620000,819.600000"/>
	<polyline style="shape-rendering:crispEdges" fill="none" stroke="rgb(255,0,0)" stroke-opacity="1" points="779.900000,865.500000 816.620000,865.500000"/>
	<polyline style="shape-rendering:crispEdges" fill="none" stroke="rgb(255,0,0)" stroke-opacity="1" points="779.900000,865.500000 779.900000,911.400000 816.620000,911.400000"/>
	<polyline style="shape-rendering:crispEdges" fill="none" stroke="rgb(0,0,255)" stroke-opacity="1" points="821.210000,834.900000 841.100000,834.900000 841.100000,865.500000 879.350000,865.500000"/>
	<polyline style="shape-rendering:crispEdges" fill="none" stroke="rgb(0,0,255)" stroke-opacity="1" points="821.210000,880.800000 841.100000,880.800000 841.100000,865.500000"/>
	<polyline style="shape-rendering:crispEdges" fill="none" stroke="rgb(0,0,255)" stroke-opacity="1" points="821.210000,926.700000 841.100000,926.700000 841.100000,880.800000"/>
	<text style="shape-rendering:crispEdges" x="1118.795000" y="808.890000" fill="rgb(0,0,255)" dominant-baseline="central" font-size="24" font-family="Arial" text-anchor="middle">byp</text>
	<polyline style="shape-rendering:crispEdges" fill="none" stroke="rgb(0,0,255)" stroke-opacity="1" points="1116.500000,681.900000 1116.500000,743.100000"/>
	<polyline style="shape-rendering:crispEdges" fill="none" stroke="rgb(0,0,255)" stroke-opacity="1" points="1047.650000,743.100000 1185.350000,743.100000"/>
	<polyline style="shape-rendering:crispEdges" fill="none" stroke="rgb(0,0,255)" stroke-opacity="1" points="1047.650000,681.900000 1101.200000,681.900000"/>
	<polyline style="shape-rendering:crispEdges" fill="none" stroke="rgb(0,0,255)" stroke-opacity="1" points="1131.800000,681.900000 1185.350000,681.900000"/>
	<polygon style="shape-rendering:crispEdges" fill="rgb(255,255,255)" stroke="rgb(0,0,0)" stroke-opacity="1" points="1116.500000,681.900000 1124.150000,697.200000 1108.850000,697.200000 1116.500000,681.900000"/>
	<polygon style="shape-rendering:crispEdges" fill="rgb(255,255,255)" stroke="rgb(0,0,0)" stroke-opacity="1" points="1116.500000,681.900000 1101.200000,689.550000 1101.200000,674.250000 1116.500000,681.900000"/>
	<polygon style="shape-rendering:crispEdges" fill="rgb(255,255,255)" stroke="rgb(0,0,0)" stroke-opacity="1" points="1116.500000,681.900000 1131.800000,689.550000 1131.800000,674.250000 1116.500000,681.900000"/>
	<rect style="shape-rendering:crispEdges" fill="rgb(255,255,255)" stroke="rgb(0,0,255)" stroke-opacity="1" x="581.000000" y="330.000000" width="153.000000" height="153.000000"/>
	<text style="shape-rendering:crispEdges" x="657.500000" y="406.500000" fill="rgb(0,0,255)" dominant-baseline="central" font-size="10" font-family="Arial" text-anchor="middle">BypassControl</text>
	<text style="shape-rendering:crispEdges" x="661.325000" y="505.185000" fill="rgb(0,0,255)" dominant-baseline="central" font-size="24" font-family="Arial" text-anchor="middle">bypCon</text>
	<polygon style="shape-rendering:crispEdges" fill="rgb(0,128,255)" stroke="rgb(0,128,255)" stroke-opacity="1" points="1590.800000,1301.550000 1621.400000,1313.025000 1590.800000,1324.500000 1590.800000,1301.550000"/>
	<polygon style="shape-rendering:crispEdges" fill="rgb(255,255,255)" stroke="rgb(255,255,255)" stroke-opacity="1" points="1590.800000,1305.375000 1613.750000,1313.025000 1590.800000,1320.675000 1590.800000,1305.375000"/>
	<polyline style="shape-rendering:crispEdges" fill="none" stroke="rgb(0,128,255)" stroke-opacity="1" points="1617.575000,1313.025000 1529.600000,1313.025000"/>
	<text style="shape-rendering:crispEdges" x="1576.265000" y="1350.510000" fill="rgb(0,0,255)" dominant-baseline="central" font-size="31" font-family="Arial" text-anchor="middle">senTCWEntChi</text>
	<polyline style="shape-rendering:crispEdges" fill="none" stroke="rgb(0,0,127)" stroke-opacity="1" points="1615.280000,1202.100000 1619.870000,1191.390000 1625.990000,1182.210000 1633.640000,1177.620000 1642.820000,1174.560000 1650.470000,1174.560000"/>
	<polyline style="shape-rendering:crispEdges" fill="none" stroke="rgb(0,128,255)" stroke-opacity="1" points="1499.000000,1248.000000 1645.880000,1248.000000"/>
	<ellipse style="shape-rendering:crispEdges" fill="rgb(191,0,0)" stroke="rgb(0,0,0)" stroke-width="2" stroke-opacity="1" cx="1575.500000" cy="1277.835000" rx="15.300000" ry="14.535000"/>
	<polyline style="shape-rendering:crispEdges" fill="none" stroke="rgb(0,0,0)" stroke-opacity="1" points="1544.900000,1202.100000 1566.320000,1202.100000"/>
	<polyline style="shape-rendering:crispEdges" fill="none" stroke="rgb(0,0,0)" stroke-opacity="1" points="1544.900000,1225.050000 1566.320000,1225.050000"/>
	<polyline style="shape-rendering:crispEdges" fill="none" stroke="rgb(0,0,0)" stroke-opacity="1" points="1544.900000,1248.000000 1566.320000,1248.000000"/>
	<rect style="shape-rendering:crispEdges" fill="rgb(191,0,0)" stroke="rgb(191,0,0)" stroke-opacity="1" x="1566.320000" y="1202.100000" width="18.360000" height="64.260000"/>
	<polygon style="shape-rendering:crispEdges" fill="none" stroke="rgb(0,0,0)" stroke-width="2" stroke-opacity="1" points="1566.320000,1202.100000 1566.320000,1186.800000 1567.850000,1182.210000 1570.910000,1180.680000 1575.500000,1179.150000 1580.090000,1180.680000 1583.150000,1182.210000 1584.680000,1186.800000 1584.680000,1202.100000 1566.320000,1202.100000"/>
	<text style="shape-rendering:crispEdges" x="1607.630000" y="1160.025000" fill="rgb(0,0,0)" dominant-baseline="central" font-size="38" font-family="Arial" text-anchor="middle">T</text>
	<polyline style="shape-rendering:crispEdges" fill="none" stroke="rgb(0,0,0)" stroke-width="2" stroke-opacity="1" points="1566.320000,1202.100000 1566.320000,1267.125000"/>
	<polyline style="shape-rendering:crispEdges" fill="none" stroke="rgb(0,0,0)" stroke-width="2" stroke-opacity="1" points="1584.680000,1202.100000 1584.680000,1266.360000"/>
	<polyline style="shape-rendering:crispEdges" fill="none" stroke="rgb(0,0,127)" stroke-opacity="1" points="1575.500000,1171.500000 1575.500000,1209.750000"/>
	<rect style="shape-rendering:crispEdges" fill="rgb(235,235,235)" stroke="rgb(0,0,0)" stroke-opacity="1" x="428.000000" y="1186.800000" width="153.000000" height="61.200000"/>
	<rect style="shape-rendering:crispEdges" fill="rgb(172,168,153)" stroke="none" x="425.920000" y="1184.720000" width="2.080000" height="63.280000"/>
	<rect style="shape-rendering:crispEdges" fill="rgb(172,168,153)" stroke="none" x="425.920000" y="1248.000000" width="155.080000" height="2.080000"/>
	<rect style="shape-rendering:crispEdges" fill="rgb(172,168,153)" stroke="none" x="581.000000" y="1186.800000" width="2.080000" height="63.280000"/>
	<rect style="shape-rendering:crispEdges" fill="rgb(172,168,153)" stroke="none" x="428.000000" y="1184.720000" width="155.080000" height="2.080000"/>
	<rect style="shape-rendering:crispEdges" fill="rgb(255,255,255)" stroke="none" x="428.000000" y="1186.800000" width="3.120000" height="61.200000"/>
	<rect style="shape-rendering:crispEdges" fill="rgb(255,255,255)" stroke="none" x="428.000000" y="1186.800000" width="153.000000" height="3.120000"/>
	<rect style="shape-rendering:crispEdges" fill="rgb(113,111,100)" stroke="none" x="578.920000" y="1186.800000" width="2.080000" height="61.200000"/>
	<rect style="shape-rendering:crispEdges" fill="rgb(113,111,100)" stroke="none" x="428.000000" y="1245.920000" width="153.000000" height="2.080000"/>
	<rect style="shape-rendering:crispEdges" fill="rgb(172,168,153)" stroke="none" x="576.840000" y="1188.880000" width="2.080000" height="57.040000"/>
	<rect style="shape-rendering:crispEdges" fill="rgb(172,168,153)" stroke="none" x="430.080000" y="1243.840000" width="148.840000" height="2.080000"/>
	<text style="shape-rendering:crispEdges" x="504.500000" y="1217.400000" fill="rgb(0,0,0)" dominant-baseline="central" font-size="23" font-family="Arial" text-anchor="middle">TCWSet</text>
	<text style="shape-rendering:crispEdges" x="500.675000" y="1163.850000" fill="rgb(0,0,255)" dominant-baseline="central" font-size="31" font-family="Arial" text-anchor="middle">realExpression</text>
	<polyline style="shape-rendering:crispEdges" fill="none" stroke="rgb(255,255,255)" stroke-width="8" stroke-opacity="1" points="887.000000,865.500000 978.800000,865.500000 978.800000,743.100000 1040.000000,743.100000"/>
	<polyline style="shape-rendering:crispEdges" fill="none" stroke="rgb(0,127,255)" stroke-width="4" stroke-opacity="1" points="887.000000,865.500000 978.800000,865.500000 978.800000,743.100000 1040.000000,743.100000"/>
	<polyline style="shape-rendering:crispEdges" fill="none" stroke="rgb(255,255,255)" stroke-width="8" stroke-opacity="1" points="1040.000000,681.900000 581.000000,681.900000 581.000000,865.500000 734.000000,865.500000"/>
	<polyline style="shape-rendering:crispEdges" fill="none" stroke="rgb(0,127,255)" stroke-width="4" stroke-opacity="1" points="1040.000000,681.900000 581.000000,681.900000 581.000000,865.500000 734.000000,865.500000"/>
	<polyline style="shape-rendering:crispEdges" fill="none" stroke="rgb(255,255,255)" stroke-width="5" stroke-opacity="1" points="727.115000,834.900000 428.000000,834.900000 428.000000,177.000000 206.150000,177.000000"/>
	<polyline style="shape-rendering:crispEdges" fill="none" stroke="rgb(0,0,127)" stroke-dasharray="4,2" stroke-opacity="1" points="727.115000,834.900000 428.000000,834.900000 428.000000,177.000000 206.150000,177.000000"/>
	<polyline style="shape-rendering:crispEdges" fill="none" stroke="rgb(255,255,255)" stroke-width="5" stroke-opacity="1" points="741.650000,406.500000 887.000000,406.500000 887.000000,651.300000 1024.700000,651.300000"/>
	<polyline style="shape-rendering:crispEdges" fill="none" stroke="rgb(0,0,127)" stroke-dasharray="4,2" stroke-opacity="1" points="741.650000,406.500000 887.000000,406.500000 887.000000,651.300000 1024.700000,651.300000"/>
	<polyline style="shape-rendering:crispEdges" fill="none" stroke="rgb(255,255,255)" stroke-width="8" stroke-opacity="1" points="1193.000000,681.900000 1346.000000,681.900000 1346.000000,177.000000 1805.000000,177.000000"/>
	<polyline style="shape-rendering:crispEdges" fill="none" stroke="rgb(0,127,255)" stroke-width="4" stroke-opacity="1" points="1193.000000,681.900000 1346.000000,681.900000 1346.000000,177.000000 1805.000000,177.000000"/>
	<polyline style="shape-rendering:crispEdges" fill="none" stroke="rgb(255,255,255)" stroke-width="8" stroke-opacity="1" points="1193.000000,743.100000 1346.000000,743.100000 1346.000000,1248.000000 1499.000000,1248.000000"/>
	<polyline style="shape-rendering:crispEdges" fill="none" stroke="rgb(0,127,255)" stroke-width="4" stroke-opacity="1" points="1193.000000,743.100000 1346.000000,743.100000 1346.000000,1248.000000 1499.000000,1248.000000"/>
	<polyline style="shape-rendering:crispEdges" fill="none" stroke="rgb(255,255,255)" stroke-width="8" stroke-opacity="1" points="1652.000000,1248.000000 1805.000000,1248.000000"/>
	<polyline style="shape-rendering:crispEdges" fill="none" stroke="rgb(0,127,255)" stroke-width="4" stroke-opacity="1" points="1652.000000,1248.000000 1805.000000,1248.000000"/>
	<polyline style="shape-rendering:crispEdges" fill="none" stroke="rgb(255,255,255)" stroke-width="5" stroke-opacity="1" points="1575.500000,1163.850000 1575.500000,590.100000 1193.000000,590.100000 1193.000000,177.000000 489.200000,177.000000 489.200000,406.500000 565.700000,406.500000"/>
	<polyline style="shape-rendering:crispEdges" fill="none" stroke="rgb(0,0,127)" stroke-dasharray="4,2" stroke-opacity="1" points="1575.500000,1163.850000 1575.500000,590.100000 1193.000000,590.100000 1193.000000,177.000000 489.200000,177.000000 489.200000,406.500000 565.700000,406.500000"/>
	<polyline style="shape-rendering:crispEdges" fill="none" stroke="rgb(255,255,255)" stroke-width="5" stroke-opacity="1" points="727.115000,911.400000 428.000000,911.400000 428.000000,1095.000000 206.150000,1095.000000"/>
	<polyline style="shape-rendering:crispEdges" fill="none" stroke="rgb(0,0,127)" stroke-dasharray="4,2" stroke-opacity="1" points="727.115000,911.400000 428.000000,911.400000 428.000000,1095.000000 206.150000,1095.000000"/>
	<polyline style="shape-rendering:crispEdges" fill="none" stroke="rgb(255,255,255)" stroke-width="5" stroke-opacity="1" points="894.650000,834.900000 1193.000000,834.900000 1193.000000,942.000000 1881.500000,942.000000"/>
	<polyline style="shape-rendering:crispEdges" fill="none" stroke="rgb(0,0,127)" stroke-dasharray="4,2" stroke-opacity="1" points="894.650000,834.900000 1193.000000,834.900000 1193.000000,942.000000 1881.500000,942.000000"/>
	<polyline style="shape-rendering:crispEdges" fill="none" stroke="rgb(255,255,255)" stroke-width="5" stroke-opacity="1" points="588.650000,1217.400000 642.200000,1217.400000 642.200000,812.715000 727.115000,812.715000"/>
	<polyline style="shape-rendering:crispEdges" fill="none" stroke="rgb(0,0,127)" stroke-dasharray="4,2" stroke-opacity="1" points="588.650000,1217.400000 642.200000,1217.400000 642.200000,812.715000 727.115000,812.715000"/>
	<ellipse style="shape-rendering:crispEdges" fill="rgb(0,127,255)" stroke="rgb(0,127,255)" stroke-opacity="1" cx="734.000000" cy="865.500000" rx="7.650000" ry="7.650000"/>
	<ellipse style="shape-rendering:crispEdges" fill="rgb(0,127,255)" stroke="rgb(0,0,0)" stroke-opacity="1" cx="734.000000" cy="865.500000" rx="7.650000" ry="7.650000"/>
	<ellipse style="shape-rendering:crispEdges" fill="rgb(0,127,255)" stroke="rgb(0,127,255)" stroke-opacity="1" cx="887.000000" cy="865.500000" rx="7.650000" ry="7.650000"/>
	<ellipse style="shape-rendering:crispEdges" fill="rgb(0,127,255)" stroke="rgb(0,0,0)" stroke-opacity="1" cx="887.000000" cy="865.500000" rx="7.650000" ry="7.650000"/>
	<ellipse style="shape-rendering:crispEdges" fill="rgb(255,255,255)" stroke="rgb(0,127,255)" stroke-opacity="1" cx="887.000000" cy="865.500000" rx="6.120000" ry="6.120000"/>
	<polygon style="shape-rendering:crispEdges" fill="rgb(0,0,127)" stroke="rgb(0,0,127)" stroke-opacity="1" points="720.230000,904.515000 734.000000,911.400000 720.230000,918.285000 720.230000,904.515000"/>
	<polygon style="shape-rendering:crispEdges" fill="rgb(0,0,127)" stroke="rgb(0,0,127)" stroke-opacity="1" points="720.230000,805.830000 734.000000,812.715000 720.230000,819.600000 720.230000,805.830000"/>
	<polygon style="shape-rendering:crispEdges" fill="rgb(0,0,127)" stroke="rgb(0,0,127)" stroke-opacity="1" points="720.230000,828.015000 734.000000,834.900000 720.230000,841.785000 720.230000,828.015000"/>
	<polygon style="shape-rendering:crispEdges" fill="rgb(0,0,127)" stroke="rgb(0,0,127)" stroke-opacity="1" points="720.230000,828.015000 734.000000,834.900000 720.230000,841.785000 720.230000,828.015000"/>
	<polygon style="shape-rendering:crispEdges" fill="rgb(255,255,255)" stroke="rgb(0,0,127)" stroke-opacity="1" points="887.000000,827.250000 902.300000,834.900000 887.000000,842.550000 887.000000,827.250000"/>
	<polygon style="shape-rendering:crispEdges" fill="rgb(255,255,255)" stroke="rgb(0,0,127)" stroke-opacity="1" points="887.000000,827.250000 902.300000,834.900000 887.000000,842.550000 887.000000,827.250000"/>
	<ellipse style="shape-rendering:crispEdges" fill="rgb(0,127,255)" stroke="rgb(0,127,255)" stroke-opacity="1" cx="1193.000000" cy="681.900000" rx="7.650000" ry="7.650000"/>
	<ellipse style="shape-rendering:crispEdges" fill="rgb(0,127,255)" stroke="rgb(0,0,0)" stroke-opacity="1" cx="1193.000000" cy="681.900000" rx="7.650000" ry="7.650000"/>
	<ellipse style="shape-rendering:crispEdges" fill="rgb(0,127,255)" stroke="rgb(0,127,255)" stroke-opacity="1" cx="1193.000000" cy="743.100000" rx="7.650000" ry="7.650000"/>
	<ellipse style="shape-rendering:crispEdges" fill="rgb(0,127,255)" stroke="rgb(0,0,0)" stroke-opacity="1" cx="1193.000000" cy="743.100000" rx="7.650000" ry="7.650000"/>
	<ellipse style="shape-rendering:crispEdges" fill="rgb(255,255,255)" stroke="rgb(0,127,255)" stroke-opacity="1" cx="1193.000000" cy="743.100000" rx="6.120000" ry="6.120000"/>
	<polygon style="shape-rendering:crispEdges" fill="rgb(0,0,127)" stroke="rgb(0,0,127)" stroke-opacity="1" points="1009.400000,636.000000 1040.000000,651.300000 1009.400000,666.600000 1009.400000,636.000000"/>
	<polygon style="shape-rendering:crispEdges" fill="rgb(255,255,255)" stroke="rgb(0,0,127)" stroke-opacity="1" points="1193.000000,643.650000 1208.300000,651.300000 1193.000000,658.950000 1193.000000,643.650000"/>
	<polygon style="shape-rendering:crispEdges" fill="rgb(255,255,255)" stroke="rgb(0,0,127)" stroke-opacity="1" points="1193.000000,766.050000 1208.300000,773.700000 1193.000000,781.350000 1193.000000,766.050000"/>
	<ellipse style="shape-rendering:crispEdges" fill="rgb(0,127,255)" stroke="rgb(0,127,255)" stroke-opacity="1" cx="1040.000000" cy="743.100000" rx="7.650000" ry="7.650000"/>
	<ellipse style="shape-rendering:crispEdges" fill="rgb(0,127,255)" stroke="rgb(0,0,0)" stroke-opacity="1" cx="1040.000000" cy="743.100000" rx="7.650000" ry="7.650000"/>
	<ellipse style="shape-rendering:crispEdges" fill="rgb(0,127,255)" stroke="rgb(0,127,255)" stroke-opacity="1" cx="1040.000000" cy="681.900000" rx="7.650000" ry="7.650000"/>
	<ellipse style="shape-rendering:crispEdges" fill="rgb(0,127,255)" stroke="rgb(0,0,0)" stroke-opacity="1" cx="1040.000000" cy="681.900000" rx="7.650000" ry="7.650000"/>
	<ellipse style="shape-rendering:crispEdges" fill="rgb(255,255,255)" stroke="rgb(0,127,255)" stroke-opacity="1" cx="1040.000000" cy="681.900000" rx="6.120000" ry="6.120000"/>
	<polygon style="shape-rendering:crispEdges" fill="rgb(0,0,127)" stroke="rgb(0,0,127)" stroke-opacity="1" points="206.150000,142.575000 275.000000,177.000000 206.150000,211.425000 206.150000,142.575000"/>
	<text style="shape-rendering:crispEdges" x="199.265000" y="127.083750" fill="rgb(0,0,127)" dominant-baseline="central" font-size="17" font-family="Arial" text-anchor="middle">On</text>
	<polygon style="shape-rendering:crispEdges" fill="rgb(0,0,127)" stroke="rgb(0,0,127)" stroke-opacity="1" points="550.400000,391.200000 581.000000,406.500000 550.400000,421.800000 550.400000,391.200000"/>
	<polygon style="shape-rendering:crispEdges" fill="rgb(255,255,255)" stroke="rgb(0,0,127)" stroke-opacity="1" points="734.000000,398.850000 749.300000,406.500000 734.000000,414.150000 734.000000,398.850000"/>
	<ellipse style="shape-rendering:crispEdges" fill="rgb(0,127,255)" stroke="rgb(0,0,0)" stroke-opacity="1" cx="1805.000000" cy="177.000000" rx="30.600000" ry="30.600000"/>
	<text style="shape-rendering:crispEdges" x="1805.000000" y="115.800000" fill="rgb(0,0,0)" dominant-baseline="central" font-size="46" font-family="Arial" text-anchor="middle">port_a</text>
	<ellipse style="shape-rendering:crispEdges" fill="rgb(0,127,255)" stroke="rgb(0,0,0)" stroke-opacity="1" cx="1805.000000" cy="1248.000000" rx="30.600000" ry="30.600000"/>
	<ellipse style="shape-rendering:crispEdges" fill="rgb(255,255,255)" stroke="rgb(0,127,255)" stroke-opacity="1" cx="1805.000000" cy="1248.000000" rx="22.950000" ry="22.950000"/>
	<text style="shape-rendering:crispEdges" x="1805.000000" y="1186.800000" fill="rgb(0,0,0)" dominant-baseline="central" font-size="46" font-family="Arial" text-anchor="middle">port_b</text>
	<ellipse style="shape-rendering:crispEdges" fill="rgb(0,127,255)" stroke="rgb(0,127,255)" stroke-opacity="1" cx="1499.000000" cy="1248.000000" rx="7.650000" ry="7.650000"/>
	<ellipse style="shape-rendering:crispEdges" fill="rgb(0,127,255)" stroke="rgb(0,0,0)" stroke-opacity="1" cx="1499.000000" cy="1248.000000" rx="7.650000" ry="7.650000"/>
	<ellipse style="shape-rendering:crispEdges" fill="rgb(0,127,255)" stroke="rgb(0,127,255)" stroke-opacity="1" cx="1652.000000" cy="1248.000000" rx="7.650000" ry="7.650000"/>
	<ellipse style="shape-rendering:crispEdges" fill="rgb(0,127,255)" stroke="rgb(0,0,0)" stroke-opacity="1" cx="1652.000000" cy="1248.000000" rx="7.650000" ry="7.650000"/>
	<ellipse style="shape-rendering:crispEdges" fill="rgb(255,255,255)" stroke="rgb(0,127,255)" stroke-opacity="1" cx="1652.000000" cy="1248.000000" rx="6.120000" ry="6.120000"/>
	<polygon style="shape-rendering:crispEdges" fill="rgb(255,255,255)" stroke="rgb(0,0,127)" stroke-opacity="1" points="1583.150000,1171.500000 1575.500000,1156.200000 1567.850000,1171.500000 1583.150000,1171.500000"/>
	<polygon style="shape-rendering:crispEdges" fill="rgb(0,0,127)" stroke="rgb(0,0,127)" stroke-opacity="1" points="206.150000,1060.575000 275.000000,1095.000000 206.150000,1129.425000 206.150000,1060.575000"/>
	<text style="shape-rendering:crispEdges" x="199.265000" y="1045.083750" fill="rgb(0,0,127)" dominant-baseline="central" font-size="17" font-family="Arial" text-anchor="middle">TWetBul</text>
	<polygon style="shape-rendering:crispEdges" fill="rgb(255,255,255)" stroke="rgb(0,0,127)" stroke-opacity="1" points="1805.000000,903.750000 1881.500000,942.000000 1805.000000,980.250000 1805.000000,903.750000"/>
	<text style="shape-rendering:crispEdges" x="1904.450000" y="876.975000" fill="rgb(0,0,127)" dominant-baseline="central" font-size="38" font-family="Arial" text-anchor="middle">P</text>
	<polygon style="shape-rendering:crispEdges" fill="rgb(255,255,255)" stroke="rgb(0,0,127)" stroke-opacity="1" points="581.000000,1209.750000 596.300000,1217.400000 581.000000,1225.050000 581.000000,1209.750000"/>
	<text style="shape-rendering:crispEdges" x="1040.000000" y="1420.000000" fill="rgb(0,0,0)" dominant-baseline="central" font-size="38" font-family="Arial" text-anchor="middle">Dymola demo version, see www.Dymola.com</text>
</svg>
